<svg width="1440" height="1024" viewBox="0 0 1440 1024" fill="none" xmlns="http://www.w3.org/2000/svg">
<path d="M307.5 116.5C249.238 192.922 235.5 254 65 269C-40.4864 269 -126 191.098 -126 95C-126 -1.09756 -40.4864 -78.9999 65 -78.9999C170.486 -78.9999 500 -136 307.5 116.5Z" fill="#62D1FE" fill-opacity="0.75"/>
<path d="M1748.71 376.184C2204.21 1011.68 1279.21 1366.68 913.71 1233.68C705.775 1233.68 522.71 991.183 863.21 776.183C913.71 535.684 939.21 540.684 1105.21 499.183C1385.49 484.683 1421.21 -3.31609 1748.71 376.184Z" fill="url(#paint0_linear_2_5)"/>
<ellipse cx="1132" cy="411.5" rx="39" ry="37.5" fill="url(#paint1_linear_2_5)"/>
<ellipse cx="795.5" cy="718" rx="45.5" ry="47" fill="url(#paint2_linear_2_5)"/>
<defs>
<linearGradient id="paint0_linear_2_5" x1="916.5" y1="1261" x2="1450.5" y2="1261" gradientUnits="userSpaceOnUse">
<stop stop-color="#2E66F5"/>
<stop offset="1" stop-color="#8100FF" stop-opacity="0.5"/>
</linearGradient>
<linearGradient id="paint1_linear_2_5" x1="1132" y1="374" x2="1132" y2="449" gradientUnits="userSpaceOnUse">
<stop stop-color="#2E66F5"/>
<stop offset="1" stop-color="#8100FF" stop-opacity="0.5"/>
</linearGradient>
<linearGradient id="paint2_linear_2_5" x1="795.5" y1="671" x2="795.5" y2="765" gradientUnits="userSpaceOnUse">
<stop stop-color="#2E66F5"/>
<stop offset="1" stop-color="#8100FF" stop-opacity="0.5"/>
</linearGradient>
</defs>
</svg>
